<svg xmlns="http://www.w3.org/2000/svg" viewBox="0 0 412.11 607.5"><defs><style>.cls-1,.cls-2{fill:#fff;}.cls-2{stroke:#fff;stroke-miterlimit:10;stroke-width:7px;}</style></defs><g id="Layer_2" data-name="Layer 2"><g id="Layer_1-2" data-name="Layer 1"><path class="cls-1" d="M92.05,604c-9.36,0-23.52-9.53-24.64-18.92l-27.49-219c15.9.35,35.27.51,61.94.51,11.45,0,23.15,0,34.85-.06,11.17,0,22.34-.05,33.29-.05,51,0,106.85-1.28,146-2.39l-25.54,225c-1,9.24-15.35,14.89-25.24,14.89Z"/><path class="cls-1" d="M312.07,367.73,287,588.71v.07c-.67,6.49-12.45,11.72-21.75,11.72H92.05c-7.78,0-20.27-8.34-21.17-15.87l-27-214.95c15.16.3,33.5.43,58,.43,11.46,0,23.36,0,34.88-.05,11,0,22.32-.06,33.25-.06,49.36,0,103.16-1.19,142.07-2.27m7.87-7.23C279.46,361.67,222.38,363,170,363c-22.41,0-45.76.11-68.13.11-23.86,0-46.61-.12-65.93-.61l28,223c1.39,11.64,17.44,22,28.11,22H265.22c10.8,0,27.49-6.18,28.72-18l26-229Z"/><path class="cls-1" d="M322,102.5a18.7,18.7,0,0,1,18.6,20.6L287.39,585.51a12.41,12.41,0,0,1-12.33,11H84.47a12.45,12.45,0,0,1-12.31-10.79l-61-462.9A18,18,0,0,1,29,102.5H322m0-11H29A29,29,0,0,0,.25,124.25l61,462.9A23.41,23.41,0,0,0,84.47,607.5H275.06a23.41,23.41,0,0,0,23.26-20.74l53.19-462.47A29.71,29.71,0,0,0,322,91.5Z"/><path class="cls-2" d="M407.94,29.5l-5,23-106-22-41.2,198.38L232,224.68,276.54,5.46a2.45,2.45,0,0,1,2.4-2Z"/><polygon class="cls-2" points="255.74 228.88 175.94 599.5 152.94 602.5 231.96 224.68 255.74 228.88"/></g></g></svg>